<?xml version="1.0" encoding="UTF-8"?>
<svg id="Layer_2" data-name="Layer 2" xmlns="http://www.w3.org/2000/svg" viewBox="0 0 484.07 484.07">
  <defs>
    <style>
      .cls-1 {
        fill: #fff;
      }
    </style>
  </defs>
  <g id="Layer_1-2" data-name="Layer 1">
    <g>
      <rect x="0" y="0" width="484.07" height="484.07" rx="242.03" ry="242.03"/>
      <path class="cls-1" d="M346.2,149.24c-.81.27-1.82,1.21-3.04,2.83-1.21,1.62-2.23,2.3-3.04,2.02v-1.62c.27,0,.61-.13,1.01-.41.4-.27.87-.27,1.42,0-.54-.81-.14-2.16,1.21-4.05-.54,0-1.15.2-1.82.61-.68.4-1.15.61-1.42.61.27.54.27,1.08,0,1.62-.27.54-.4,1.08-.4,1.62-1.35.27-1.89,1.21-1.62,2.83-1.35-.27-2.37.14-3.04,1.21-.68,1.08-1.28,2.43-1.82,4.05h-2.83c.27-.27.67-.74,1.21-1.42.54-.67.94-1.28,1.21-1.82-2.7,1.62-6.07,4.79-10.12,9.51-4.05,4.72-7.29,7.89-9.71,9.51-.81,1.62-2.7,3.58-5.67,5.87-2.97,2.3-4.72,4.65-5.26,7.08-.27.27-.68.47-1.21.61-.54.14-.95.34-1.21.61,0,.81-.27,1.89-.81,3.24-.54,1.35-.4,2.16.4,2.43-.27.27-.75.75-1.42,1.42-.68.68-1.15,1.08-1.42,1.21-.27.14-.81.07-1.62-.2.81,0,.81-.67,0-2.02-.27,0-.4.54-.4,1.62-1.35-.54-2.16-.67-2.43-.4v1.21c0,.54-.14,1.01-.4,1.42-.27.4-.81.61-1.62.61,0,.27.2.68.61,1.21.4.54.61,1.08.61,1.62-.54,0-.81-.13-.81-.4l-.4-.81c-.54,0-1.08.27-1.62.81s-1.08.68-1.62.4v1.62h.81c.54-.81,1.08-.94,1.62-.4-22.4,20.78-45.2,38.72-68.4,53.83-.54.27-1.08.14-1.62-.4l-.4-.81c0,.27-.34.47-1.01.61-.68.14-.88.47-.61,1.01-.81,0-1.21.14-1.21.41,0,.54.4.4,1.21-.41,1.08,0,1.62-.13,1.62-.4.54.54.27,1.08-.81,1.62-.54.27-.81.54-.81.81s.2.61.61,1.01.74.88,1.01,1.42c2.16,0,4.45.34,6.88,1.01,2.43.68,4.45,1.35,6.07,2.02,1.62.68,3.64,1.56,6.07,2.63,2.43,1.08,4.18,1.89,5.26,2.43.27,0,.54-.13.81-.4l.4-.4c2.69,1.89,5.67,2.83,8.9,2.83,2.43,1.62,6.61,3.51,12.55,5.67,5.93,2.16,10.12,4.05,12.55,5.67,4.58.54,10.59,2.9,18.01,7.08,7.42,4.19,12.75,6.68,15.99,7.49.27.54,1.08,1.28,2.43,2.23,1.35.95,2.16,1.82,2.43,2.63-.54-.81-.95-.81-1.21,0v1.21c-1.62-3.77-4.19-5.26-7.69-4.45v-2.43c-1.08.27-2.97-.33-5.67-1.82-2.7-1.48-4.72-2.09-6.07-1.82l-.4-1.21c-.54-.81-1.08-1.21-1.62-1.21-.27,0-.41.14-.41.41,0,.54-.07.81-.2.81h-1.01c.27-1.08-.54-2.02-2.43-2.83-1.89-.81-3.1-.94-3.64-.4-.27-.27-.47-.74-.61-1.42-.14-.67-.47-1.15-1.01-1.42-.54,0-.95.27-1.21.81-.27.54-.68.68-1.21.4-.27-1.08-.95-1.75-2.02-2.02-1.08-.27-2.16-.13-3.24.4.27-.81.2-1.28-.2-1.42-.4-.13-1.15-.2-2.23-.2,0-.81-.27-1.75-.81-2.83-.54,0-1.08.27-1.62.81-.54.54-1.08.68-1.62.4-2.16-1.35-5.33-2.83-9.51-4.45-4.19-1.62-6.68-2.69-7.49-3.24-1.08,1.08-.68,2.02,1.21,2.83,2.16.54,10.38,3.78,24.69,9.71-1.08,1.62-1.08,2.7,0,3.24-.54.27-.95.2-1.21-.2-.27-.4-.4-1.01-.4-1.82l-.4-1.21h-2.43c-.27.27-.4.54-.4.81s.13.4.4.4c-2.16-.27-5.26-1.35-9.31-3.24-4.05-1.88-7.29-3.1-9.71-3.64v-2.43c-.27.54-.61,1.01-1.01,1.42s-.61.75-.61,1.01c-1.08-.27-1.89-1.21-2.43-2.83-.81,0-1.21.4-1.21,1.21-.27-.54-.88-1.01-1.82-1.42-.95-.4-1.96-.67-3.04-.81-1.08-.13-1.76-.2-2.02-.2,0,.54.33,1.01,1.01,1.42.67.4.87,1.01.61,1.82h-2.02c.54.81,1.21,1.08,2.02.81.81-.27,1.35-.94,1.62-2.02,1.07.54,2.16,1.42,3.24,2.63,1.08,1.21,2.16,1.96,3.24,2.23.54.54.54,1.08,0,1.62l-.81.4c0,.27.27.4.81.4l.81.4c.27,0,.33-.33.2-1.01-.14-.67-.07-1.15.2-1.42h4.45c0,.27.06.68.2,1.21.13.54.34.95.61,1.21.27,0,.41-.13.41-.4.54-.81,1.07-1.08,1.62-.81,0,.27.13.61.4,1.01.27.4.4.75.4,1.01.27-.81,1.01-1.14,2.23-1.01,1.21.14,1.82.75,1.82,1.82-.81-.27-1.21-.27-1.21,0l.81.81c-.27.81-.81.95-1.62.4-.27-.27-.54-.4-.81-.4.81,1.35,2.97,2.57,6.48,3.64.27-.54.94-.81,2.02-.81.27,0,.4-.4.4-1.21,0,.54.54,1.01,1.62,1.42,1.07.4,1.75.88,2.02,1.42.54.27.94,0,1.21-.81.27-.81.54-1.21.81-1.21l4.05,2.02c-.27,1.35.47,2.43,2.23,3.24,1.75.81,2.63,1.76,2.63,2.83,1.35-.81,2.43-1.08,3.24-.81.81.27,2.09.88,3.85,1.82,1.75.95,3.04,1.56,3.84,1.82,0,1.08-.14,1.76-.4,2.02.54-.27,1.48-.27,2.83,0,1.35.27,2.29,0,2.83-.81v2.02c5.12,1.62,8.09,3.1,8.9,4.45,4.31.54,7.69,2.43,10.12,5.67,1.35-.27,2.56-.07,3.64.61,1.08.67,2.16,1.75,3.24,3.24,1.08,1.48,1.88,2.49,2.43,3.04-8.64-2.43-20.71-7.29-36.22-14.57-15.52-7.29-27.59-12.27-36.22-14.97-22.13-8.9-44.52-16.05-67.19-21.45-.54,0-1.28.4-2.23,1.21-.95.81-1.82,1.08-2.63.81-.27,2.43-1.21,5.53-2.83,9.31-.54-.27-.61-1.21-.2-2.83s.61-2.69.61-3.24c-.54.54-.95,1.62-1.21,3.24-.27,1.62-.81,2.57-1.62,2.83,1.35,1.35,2.43,2.83,3.24,4.45,0,1.89-.54,3.64-1.62,5.26-1.08.27-1.62-.67-1.62-2.83-.54.81-.75,1.89-.61,3.24.13,1.35-.2,2.43-1.01,3.24.27.27.61.27,1.01,0,.4-.27.74-.74,1.01-1.42.27-.67.4-1.14.4-1.42,1.62,9.18.27,16.59-4.05,22.26-.54,13.49-2.83,33.79-6.88,60.91-4.05,27.12-6.21,47.69-6.48,61.72-1.08.54-2.23.61-3.44.2s-1.96-.34-2.23.2c-.27-.27-.75-.54-1.42-.81-.68-.27-1.21-.47-1.62-.61-.4-.14-.81-.47-1.21-1.01-.4-.54-.61-1.21-.61-2.02-.81.54-1.21,1.08-1.21,1.62-1.08-3.51-2.83-5.13-5.26-4.86-1.35-1.62-2.09-4.12-2.23-7.49-.14-3.38.33-6.14,1.42-8.3.81-11.88,2.63-27.05,5.46-45.53,2.83-18.48,4.65-31.23,5.46-38.25,0-12.41,2.02-22.94,6.07-31.57-.81-2.43-.61-6.48.61-12.14,1.21-5.67,1.82-9.71,1.82-12.14-.27-.54-.61-1.42-1.01-2.63-.4-1.21-.75-2.09-1.01-2.63-4.05-.54-6.14-3.85-6.27-9.92-.14-6.07,1.28-10.32,4.25-12.75,1.08.81,2.56.88,4.45.2,1.88-.67,3.37-1.01,4.45-1.01,0-.54-.07-1.55-.2-3.04-.14-1.48-.07-2.56.2-3.24.27-.67.94-1.01,2.02-1.01-.81-1.35-1.08-3.17-.81-5.46.27-2.29.94-3.84,2.02-4.65.54-7.01,1.48-14.1,2.83-21.25,1.35-7.15,3.1-15.51,5.26-25.09,2.16-9.58,3.5-15.99,4.05-19.22,0-4.31.74-10.79,2.23-19.43,1.48-8.63,2.23-14.84,2.23-18.62.27,0,.67-.13,1.21-.4.81-.27,1.35-.54,1.62-.81.81.27,3.84.61,9.11,1.01s8.56,1.96,9.92,4.65c-.27,1.35-.14,3.24.4,5.67-.81,2.97-2.23,8.64-4.25,17-2.02,8.37-3.71,14.71-5.06,19.02-1.35,8.37-2.57,13.09-3.64,14.17,1.62,4.32.4,9.99-3.64,17,1.88,4.59,1.08,10.52-2.43,17.81.27-.81.4-1.75.4-2.83s.13-2.02.4-2.83c.54-.27.81-.81.81-1.62s.13-1.35.4-1.62c-.81,0-1.21,1.08-1.21,3.24-1.35,1.35-2.09,2.97-2.23,4.86-.14,1.89.61,3.24,2.23,4.05-.27.54-.47,1.89-.61,4.05-.14,2.16-.47,3.64-1.01,4.45l-2.02-2.83c.54.54.94.61,1.21.2.27-.41.4-1.15.4-2.23-.81.81-1.21.68-1.21-.4-.54.81-.95,1.62-1.21,2.43-.27.81-.4,1.96-.4,3.44v3.04c.54-1.07.81-2.29.81-3.64.27,0,.4.81.4,2.43-.27,0-.4.54-.4,1.62.27,0,.4-.54.4-1.62.27,0,.54-.27.81-.81.27-.54.67-.67,1.21-.4-1.62,7.56-2.57,13.22-2.83,17,5.93-2.69,14.1-7.01,24.49-12.95,10.38-5.93,16.25-9.31,17.61-10.12,3.77-4.58,7.15-7.96,10.12-10.12,1.62-.81,3.37-1.68,5.26-2.63,1.88-.94,2.83-1.14,2.83-.61,2.69-2.69,4.72-4.18,6.07-4.45-1.08,1.89-3.31,4.05-6.68,6.47-3.38,2.43-5.6,4.45-6.68,6.07,9.17-5.39,20.24-14.84,33.19-28.33-1.62.81-4.39,3.1-8.3,6.88-3.91,3.78-7.08,6.21-9.51,7.29-.27-1.35.54-2.83,2.43-4.45,1.88-1.62,2.97-2.83,3.24-3.64.81-.27,2.02-1.01,3.64-2.23s3.1-1.95,4.45-2.23c3.5-2.69,5.4-4.05,5.67-4.05-.54,1.08-.81,1.76-.81,2.02,2.43.54,4.31-1.08,5.67-4.86-.27-.27-.88.2-1.82,1.42-.95,1.21-1.82,1.69-2.63,1.42,2.43-2.97,6.61-7.15,12.55-12.55h1.62l.4.4c.54,0,.61-.33.2-1.01-.4-.67-.34-1.15.2-1.42l6.48-6.48c19.15-16.19,34.4-33.86,45.73-53.02,4.31-4.05,7.82-12.68,10.52-25.9.27-13.76-5.67-23.47-17.81-29.14-12.14-5.67-25.9-6.74-41.28-3.24-.54.27-1.21.27-2.02,0l-.81-.4c-11.6,2.16-20.51,4.86-26.71,8.09-.27.27-.68.14-1.21-.4h-1.21c-2.43,1.08-6.54,2.7-12.34,4.86-5.81,2.16-10.73,4.25-14.77,6.27-4.05,2.02-7.56,4.25-10.52,6.68-6.75,2.16-11.07,4.45-12.95,6.88-7.02,2.43-13.9,6.61-20.64,12.55-4.32,2.16-8.44,4.86-12.34,8.09-3.91,3.24-8.23,6.95-12.95,11.13-4.72,4.19-8.44,7.35-11.13,9.51-1.35,2.16-5.06,6.55-11.13,13.15-6.07,6.61-9.92,12.48-11.54,17.61-.27,0-.67.34-1.21,1.01-.54.68-1.08,1.15-1.62,1.42-.27,1.35-.94,3.24-2.02,5.67-1.08,2.43-1.82,4.65-2.23,6.68-.4,2.02-.61,4.39-.61,7.08,2.43,7.56,3.64,12.14,3.64,13.76-.81,0-1.21.4-1.21,1.21-.54,0-.94-.06-1.21-.2-.27-.13-.54-.2-.81-.2h-1.62c-3.24-2.97-6.07-8.36-8.5-16.19-1.88-11.33-1.88-19.97,0-25.9.54-.27,1.01-.61,1.42-1.01s.68-.94.81-1.62c.14-.67.27-1.28.4-1.82.14-.54.2-1.35.2-2.43v-2.83c1.08-1.35,2.7-3.64,4.86-6.88,2.16-3.24,4.19-5.93,6.07-8.09,1.89-2.16,4.05-3.91,6.48-5.26,0-.81-.14-1.35-.4-1.62,3.5-2.43,8.63-6.88,15.38-13.36,6.74-6.48,12.14-10.93,16.19-13.36,1.08-.27,1.62-1.21,1.62-2.83.54.27,1.68-.27,3.44-1.62,1.75-1.35,3.17-1.88,4.25-1.62-.27-.54-.81-.4-1.62.4-.54-.54-.34-1.21.61-2.02.94-.81,1.55-.67,1.82.4.27,0,.4-.54.4-1.62.81.54,1.68.47,2.63-.2.94-.67,1.15-1.42.61-2.23,1.35.81,2.83.61,4.45-.61s2.29-2.49,2.02-3.84c1.88,0,4.11-1.15,6.68-3.44,2.56-2.29,4.79-3.57,6.68-3.84,2.43-2.43,6.61-4.99,12.55-7.69,5.93-2.69,9.85-4.86,11.74-6.47h2.43c.81-1.08,2.23-1.88,4.25-2.43,2.02-.54,3.44-1.48,4.25-2.83,2.97.27,5.93-1.08,8.9-4.05,4.58-1.08,11.33-3.1,20.24-6.07,8.9-2.97,14.03-4.58,15.38-4.86,26.98-3.77,44.12-2.83,51.4,2.83.27,0,.54-.06.81-.2.27-.13.67-.2,1.21-.2,1.08,1.08,3.37,2.9,6.88,5.46,3.5,2.57,6.07,4.79,7.69,6.68-.27.27-.4.68-.4,1.21s-.14.95-.4,1.21c1.62,1.08,2.9,2.43,3.85,4.05.94,1.62,1.95,3.58,3.04,5.87,1.08,2.3,1.88,3.98,2.43,5.06l-.4-.4c-.27-.27-.54-.27-.81,0,5.67,9.71,7.55,20.51,5.67,32.38-.54-.27-.61-1.14-.2-2.63.4-1.48.47-2.49.2-3.04-1.08.81-1.76,2.02-2.02,3.64-.27,1.62-.34,3.51-.2,5.67.13,2.16.2,3.64.2,4.45-.54.54-.81,2.43-.81,5.67-.54.81-1.49,2.7-2.83,5.67-1.35,2.97-2.7,5.13-4.05,6.48.27,1.35-.14,2.7-1.21,4.05-1.08,1.35-1.62,2.43-1.62,3.24-.81,0-1.49-.27-2.02-.81.54,1.62,0,3.1-1.62,4.45-1.62,1.35-2.57,2.57-2.83,3.64ZM163.67,118.89c-.27,0-.61-.13-1.01-.41-.4-.27-.88-.4-1.42-.4-.27.54,0,.95.81,1.21.81.27,1.35.14,1.62-.4ZM163.67,116.46c0-.81-.27-1.21-.81-1.21,0,1.08.27,1.49.81,1.21ZM163.67,319.23h.81v-1.21h-.81v1.21ZM164.07,317.2h1.21v-1.21h-1.21v1.21ZM164.48,116.86c.81.27,1.28-.06,1.42-1.01.13-.94-.07-1.42-.61-1.42-.54,1.08-.81,1.89-.81,2.43ZM165.69,348.37c0-.81-.4-1.35-1.21-1.62.54,1.08.94,1.62,1.21,1.62ZM166.1,343.92c0-.27.13-.81.4-1.62.27-.54,0-.81-.81-.81,0,1.62.13,2.43.4,2.43ZM265.25,55.75l1.62-.4.81.4c-1.89,2.43-5.13,3.64-9.71,3.64,0-.27.33-.61,1.01-1.01.67-.41,1.15-.74,1.42-1.01.27-.27.27-.81,0-1.62-1.35.54-4.05,1.56-8.09,3.04-4.05,1.49-6.75,2.9-8.09,4.25h.81l.4.4c.54.27.81.07.81-.61s.27-.87.81-.61l.81.81-1.62,1.62c-.54,0-1.49-.67-2.83-2.02-.54.27-1.01.81-1.42,1.62-.4.81-.75,1.21-1.01,1.21s-.47-.27-.61-.81c-.14-.54-.47-.67-1.01-.4,0,.54-.68.81-2.02.81.54,1.62.27,2.43-.81,2.43-.81-.81-2.43-.27-4.86,1.62-.81-.27-1.89,0-3.24.81-.27.54-.14.95.4,1.21.27,0,.4.14.4.4-.54.54-1.28.95-2.23,1.21-.95.27-1.69.81-2.23,1.62-1.62-1.35-3.24-.4-4.86,2.83,0-.27.13-.81.4-1.62.27-.54,0-.81-.81-.81l-.81,1.21c-.27.81-.68,1.35-1.21,1.62h-.81c-.54-.27-1.08-.54-1.62-.81l-1.21,2.43c-.54-.54-1.01-.74-1.42-.61-.4.14-1.01.47-1.82,1.01-.81.54-1.35.81-1.62.81-.27.54-.34,1.01-.2,1.42.13.4.13.88,0,1.42-.14.54-.34.81-.61.81,0-.81-.27-.94-.81-.4-.81.54-1.49.68-2.02.4-.27-.54-.14-.94.4-1.21.54-.27.81-.54.81-.81-2.7,3.24-7.15,6.75-13.36,10.52-6.21,3.78-10.39,7.02-12.55,9.71-1.08-.54-2.37.27-3.85,2.43-1.49,2.16-2.77,2.7-3.85,1.62,0,1.35-1.21,2.97-3.64,4.86-2.43,1.89-3.24,3.64-2.43,5.26,3.24-2.69,4.72-4.58,4.45-5.67.27,0,.54.2.81.61.27.4.67.47,1.21.2,2.16-2.16,3.1-3.37,2.83-3.64.81.54,1.62,0,2.43-1.62.81.54,1.42.68,1.82.4.41-.27,1.08-.81,2.02-1.62.94-.81,1.68-1.21,2.23-1.21,0,.54.27,1.08.81,1.62,8.9-6.74,19.15-13.22,30.76-19.43,0-2.69.13-4.18.4-4.45.54.54.74,1.21.61,2.02-.14.81.06,1.35.61,1.62,1.08-1.62,3.44-3.1,7.08-4.45,3.64-1.35,6-2.69,7.08-4.05,2.69-.81,7.49-2.9,14.37-6.27,6.88-3.37,12.75-5.32,17.61-5.87,10.79-6.48,26.04-10.38,45.73-11.74.27-.54.13-1.62-.4-3.24.27,0,.61-.13,1.01-.4.4-.27.74-.4,1.01-.4.54.27,2.83.47,6.88.61,4.05.14,6.74,1.01,8.09,2.63-1.35-.27-2.7-.27-4.05,0v.4c.54,0,1.55.14,3.04.4,1.48.27,2.36.14,2.63-.4-.81-.54-1.21-1.08-1.21-1.62.54,0,1.48.14,2.83.4,1.35.54,2.16.27,2.43-.81-.54-.27-1.69-.4-3.44-.4s-3.24-.27-4.45-.81c-1.21-.54-1.56-1.48-1.01-2.83-1.08,1.62-3.24,2.23-6.48,1.82-3.24-.4-5.81-.33-7.69.2,0-.27-.14-.54-.4-.81v-.4c0-.27.47-.47,1.42-.61.94-.13,1.42-.47,1.42-1.01-3.24-1.08-5.26-1.08-6.07,0-.54-.54-1.69-.81-3.44-.81s-2.63.54-2.63,1.62c-.54.27-.81.14-.81-.4-.27-.54-.54-.81-.81-.81-.81.81-1.82,1.35-3.04,1.62-1.21.27-2.77.4-4.65.4s-3.38.14-4.45.4c-.54.27-.68.68-.4,1.21-2.97,0-10.93,2.16-23.88,6.48,0,.81.4,1.49,1.21,2.02.27,0,.54-.13.81-.4s.54-.47.81-.61c.27-.13.67-.33,1.21-.61ZM168.52,109.17v1.21c.54.27.87.07,1.01-.61.13-.67-.07-1.01-.61-1.01,0,.54-.14.68-.4.4ZM172.98,108.77h.81v.81h-.81v-.81ZM173.79,249.21c0-.27.13-.54.41-.81.27-.81,0-1.21-.81-1.21,0,1.35.13,2.02.4,2.02ZM175.41,112.01l5.26-4.05c-2.7.27-4.45,1.62-5.26,4.05ZM176.62,251.23c0-.27.13-1.21.4-2.83.27-1.62.4-3.04.4-4.25s-.27-1.95-.81-2.23c.27,1.08.2,2.7-.2,4.86-.4,2.16-.34,3.64.2,4.45ZM178.24,240.71c0-.27.13-.94.4-2.02.27-1.07-.14-1.62-1.21-1.62,0,.27-.14.81-.4,1.62-.27,1.35.13,2.02,1.21,2.02ZM177.43,235.85c.81.27,1.21-.27,1.21-1.62-.54-.27-.95-.2-1.21.2-.27.4-.27.88,0,1.42ZM181.07,107.15c.81.81,2.02.4,3.64-1.21-2.16,0-3.38.4-3.64,1.21ZM183.09,290.09c.54,0,1.08-.67,1.62-2.02-.54,0-1.08.68-1.62,2.02ZM185.93,102.29c.81.54.54,1.08-.81,1.62-.27-.54-.14-.94.4-1.21.27,0,.4-.13.4-.4ZM187.14,99.46v1.62c-1.08,0-1.62.14-1.62.4-.54-.27-.4-.67.4-1.21.27-.27.54-.4.81-.4s.4-.13.4-.4ZM186.33,190.52c.81-1.35.67-2.16-.4-2.43v1.21c0,.81.13,1.21.4,1.21ZM189.98,99.86c0,1.08-.68,1.62-2.02,1.62.54-1.35,1.21-1.88,2.02-1.62ZM189.98,253.66h1.21c0-1.08-.14-1.62-.4-1.62,0,.27-.2.47-.61.61-.4.14-.47.47-.2,1.01ZM192.4,97.44c.81.54.81,1.08,0,1.62-.54.54-1.08.68-1.62.4-.27-.54-.07-.94.61-1.21.67-.27,1.01-.54,1.01-.81ZM192.81,95.01c-.54,1.08-1.21,1.62-2.02,1.62,0-.27.67-.81,2.02-1.62ZM192,251.64c-.27-.54-.27-1.21,0-2.02.27-.54,0-.81-.81-.81v1.62c-.27.54,0,.95.81,1.21ZM193.62,229.78c0-.81.54-1.21,1.62-1.21,0-.81-.07-1.35-.2-1.62-.14-.27-.61-.27-1.42,0-.27.27-.4.75-.4,1.42s.13,1.15.4,1.42ZM195.64,96.22c0-.54.13-.67.4-.4,0,.27-.14.4-.4.4ZM197.26,213.59c.81,0,1.28-.4,1.42-1.21.13-.81-.2-1.35-1.01-1.62v1.42c0,.41-.14.88-.4,1.42ZM208.19,250.02c-.81.54-2.37,1.28-4.65,2.23-2.3.95-4.12,1.96-5.46,3.04l3.64,1.21c1.62-2.69,3.64-3.64,6.07-2.83,0-.54.13-1.15.4-1.82.27-.67.27-1.28,0-1.82.27,0,.54.14.81.4.27.27.54.54.81.81,0-1.35.13-2.02.4-2.02.81.54,1.95.4,3.44-.4,1.48-.81,2.63-1.21,3.44-1.21v-2.02c.81.54,1.82.27,3.04-.81,1.21-1.07,2.36-1.62,3.44-1.62,0-.27-.14-.67-.4-1.21-.27-.27-.14-.4.4-.4,1.35,0,2.49-.54,3.44-1.62.94-1.08,1.82-1.62,2.63-1.62,0-1.07.13-1.62.4-1.62l.81.4h.81c1.08-1.08,2.69-2.43,4.86-4.05,2.16-1.62,3.64-2.83,4.45-3.64l2.02-1.21c1.08-.54,1.55-.94,1.42-1.21-.14-.27-.2-.94-.2-2.02-3.24,2.7-6.88,5.46-10.93,8.3-4.05,2.83-8.57,5.87-13.56,9.11-5,3.24-8.84,5.81-11.53,7.69ZM201.71,89.34h.81v.81c-.27,0-.4.27-.4.81h-1.21v-1.21c.54.54.81.4.81-.4ZM202.52,91.77l.81-.41c0,.27-.27.41-.81.41ZM204.95,86.91c.54,0,.81.27.81.81-.27,0-.4.27-.4.81-.27,0-.4-.54-.4-1.62ZM206.97,86.1h.81v.81h-.81v-.81ZM209.4,86.91c.54.81,0,1.49-1.62,2.02.27-.54.61-.94,1.01-1.21.4-.27.61-.54.61-.81ZM212.64,80.03c.27.81-.14,1.21-1.21,1.21h-1.21c0-.81.81-1.21,2.43-1.21ZM213.85,84.89c-.54.81-1.21,1.21-2.02,1.21.27-.81.94-1.21,2.02-1.21ZM212.24,260.14c1.35,0,2.29-.54,2.83-1.62-.54-.54-1.21-.61-2.02-.2s-1.08,1.01-.81,1.82ZM215.47,257.71h1.21c.27-.27.06-.54-.61-.81-.68-.27-1.01-.13-1.01.4.54,0,.67.14.4.4ZM216.69,76.79c.81,0,1.21-.4,1.21-1.21-.81,0-1.21.4-1.21,1.21ZM221.14,80.44c1.07.81.81,1.35-.81,1.62h-.81c-.27-.54-.07-.87.61-1.01.67-.13,1.01-.33,1.01-.61ZM221.95,254.07c1.07,0,1.62-.67,1.62-2.02h-1.62v2.02ZM224.78,74.37c-1.35,0-2.16.4-2.43,1.21,1.35,0,2.16-.4,2.43-1.21ZM223.97,254.88h-.81c-.27,0-.4.14-.4.4.81,0,1.21-.13,1.21-.4ZM226,84.08h.81v-1.21h-.81v1.21ZM227.62,70.32h-.41c-.27,0-.4.14-.4.4.54,0,.81-.13.81-.4ZM226.81,250.02c1.08,0,1.88-.4,2.43-1.21-1.08-.27-1.89.14-2.43,1.21ZM228.42,277.14h.81v-.81h-.81v.81ZM231.66,75.18c0,.81-.95,1.49-2.83,2.02l.4-.4v-1.21c.54.27.94.27,1.21,0,.54-.27.94-.4,1.21-.4ZM229.64,251.23c1.08.27,1.75-.13,2.02-1.21.27-.27.13-.54-.4-.81,0,.27-.2.54-.61.81-.4.27-.75.68-1.01,1.21ZM230.85,248c0-.54.27-1.08.81-1.62-.81-.54-1.28-.41-1.42.4-.14.81.06,1.21.61,1.21ZM232.07,247.59c.81.27,1.35.14,1.62-.4.27-1.08-.27-1.62-1.62-1.62v2.02ZM233.28,248.8c-.81,0-1.21.14-1.21.4.81,0,1.21-.13,1.21-.4ZM234.9,73.96c0,.54-.54.81-1.62.81,0-.54.54-.81,1.62-.81ZM233.28,244.35c.27.81,1.08,1.21,2.43,1.21,0-.27.13-.4.4-.4l.4-.81c-.27-.54-.75-.67-1.42-.4-.68.27-1.28.4-1.82.4ZM234.09,249.21c0-.27.41-.67,1.21-1.21.54-.27.81-.67.81-1.21-1.35-.27-2.16.14-2.43,1.21,0,.54.13.95.4,1.21ZM236.52,271.06c-.27-.27-.81-.27-1.62,0h1.62ZM236.11,277.14c1.08,1.08,1.75,1.08,2.02,0-.27,0-.47-.13-.61-.4-.14-.27-.34-.4-.61-.4,0,.27-.14.4-.4.4l-.4.4ZM236.92,272.28h1.21v-.81h-1.21v.81ZM238.54,245.57c0-.27.34-.4,1.01-.4s1.01-.27,1.01-.81c-.54-.27-1.08-.81-1.62-1.62-.54-.81-1.08-1.21-1.62-1.21,0,.54.2,1.21.61,2.02s.61,1.49.61,2.02ZM238.14,68.3c0-.27.13-.4.4-.4,0,.54-.14.68-.4.4ZM238.95,278.35l.81.81c.81.54,1.62.68,2.43.4-.81-.27-1.28-.94-1.42-2.02-.14-1.08-.47-1.75-1.01-2.02,0,.54-.27,1.49-.81,2.83ZM240.97,70.72c0,.54-.27.88-.81,1.01-.54.14-.81.34-.81.61-.54-.54,0-1.08,1.62-1.62ZM239.35,241.52c.81,0,1.48-.54,2.02-1.62-1.35,0-2.02.54-2.02,1.62ZM241.38,281.18c-.54,0-.81.14-.81.4.54,0,.81-.13.81-.4ZM240.97,243.95c1.07,0,1.62-.54,1.62-1.62.27-.27.13-.54-.4-.81l-.81.4c-.54.54-.68,1.21-.4,2.02ZM241.38,276.73c1.62,1.62,2.43,1.62,2.43,0-1.35-.81-2.16-.81-2.43,0ZM241.78,237.47c-.27.54,0,.88.81,1.01.81.14,1.21.34,1.21.61v-2.02c-1.08,0-1.76.14-2.02.4ZM241.78,75.18c1.35.54,2.02.27,2.02-.81-.81,0-1.49.27-2.02.81ZM252.71,277.95c0-.54-.47-1.01-1.42-1.42-.95-.4-1.56-1.01-1.82-1.82,0,.27-.27.68-.81,1.21,0-.27-.14-.54-.4-.81-.27-.27-.27-.67,0-1.21-.81.54-1.76.68-2.83.4-1.08-.27-1.76-.27-2.02,0,5.12,2.16,8.23,3.38,9.31,3.64ZM244.21,280.78c0-.54-.27-1.08-.81-1.62,0,.54.27,1.08.81,1.62ZM244.21,236.66c0,1.08.4,1.62,1.21,1.62.27-.27.54-.4.81-.4,0-1.08-.27-1.75-.81-2.02-.54.54-.95.81-1.21.81ZM249.07,279.56c.27-.81.06-1.42-.61-1.82-.68-.4-1.56-.61-2.63-.61h-1.21c.54,1.08,2.02,1.89,4.45,2.43ZM248.26,237.47c.81,0,1.35-.54,1.62-1.62,0-.54-.14-.81-.4-.81,0,.27-.27.61-.81,1.01-.54.4-.68.88-.4,1.42ZM252.71,279.56c-.27,0-.81-.06-1.62-.2-.81-.13-1.35-.33-1.62-.61,0,.54.4.95,1.21,1.21.81.27,1.48.14,2.02-.41ZM252.71,65.87c-.27.81-.95,1.21-2.02,1.21,0-.81.67-1.21,2.02-1.21ZM250.68,233.02v1.21h.81c0-.54.13-.81.4-.81v-.81h-.81c0,.54-.14.68-.4.41ZM252.71,60.61c0-.27.27-.4.81-.4,0,.27-.27.4-.81.4ZM254.33,229.38c-.54,0-.81.54-.81,1.62.54.27.87.27,1.01,0,.13-.27.06-.54-.2-.81v-.81ZM253.52,233.02c.27.81.87.75,1.82-.2.94-.94,1.01-1.68.2-2.23.27.81-.14,1.21-1.21,1.21-.54.27-.81.68-.81,1.21ZM253.52,285.63h2.02c0,.54-.27.68-.81.4-.54-.27-.95-.4-1.21-.4ZM259.99,63.03c-.54.81-1.21,1.21-2.02,1.21.27-.81.94-1.21,2.02-1.21ZM258.78,225.73c-.27.54-.14,1.08.4,1.62.54.54.94.54,1.21,0-.81,0-.95-.4-.4-1.21.54,0,.81-.27.81-.81-1.08,0-1.76.14-2.02.4ZM260.4,222.5v.81c.27.27.54.27.81,0,0-.54-.14-.94-.41-1.21,0,.27-.14.4-.4.4ZM262.42,224.52c0-.27.27-.74.81-1.42.54-.67.81-1.28.81-1.82-.81,0-1.42.47-1.82,1.42-.4.95-.34,1.56.2,1.82ZM263.64,291.71c-.27,0-.68-.27-1.21-.81,0,.54.4.81,1.21.81ZM266.06,65.06c-.54,0-.81.14-.81.4.54,0,.81-.13.81-.4ZM266.47,65.06c1.08,0,1.62-.27,1.62-.81-.54,0-1.08.27-1.62.81ZM267.68,291.3c.27,0,.67.14,1.21.4.54.54.94.4,1.21-.4,0,.27.27.68.81,1.21.54.54.67,1.08.4,1.62l-1.62-.4c-.81,0-1.42-.13-1.82-.4-.41-.27-.47-.94-.2-2.02ZM270.92,53.73c.54.81,1.08,1.08,1.62.81-.27.54-.61.88-1.01,1.01-.4.14-.95.14-1.62,0-.68-.13-1.28-.2-1.82-.2,0-.54.94-1.08,2.83-1.62ZM273.35,288.87c.27-.81-.14-1.35-1.21-1.62-.54,0-.95-.13-1.21-.4-.27,1.35.54,2.02,2.43,2.02ZM270.92,64.25h1.21v-1.21h-1.21v1.21ZM272.54,216.02h.81v-.81h-.81v.81ZM273.35,218.04c.27-.54.94-1.21,2.02-2.02,1.07-.81,1.75-1.62,2.02-2.43-.54.27-1.08.34-1.62.2-.54-.13-.95-.06-1.21.2.54.54.34,1.28-.61,2.23-.95.95-1.15,1.56-.61,1.82ZM274.56,62.63c-.81,0-1.21.14-1.21.4.81,0,1.21-.13,1.21-.4ZM276.99,297.78c.27-.81-.07-1.42-1.01-1.82-.95-.4-1.69-.33-2.23.2.54,0,1.08.27,1.62.81.54.54,1.07.81,1.62.81ZM278.61,53.32h-4.05c.27-.54,1.01-.94,2.23-1.21,1.21-.27,1.82.14,1.82,1.21ZM277.4,293.73c-.27.81-.95.81-2.02,0l-.4-.4c.54-2.16,1.35-2.02,2.43.4ZM276.99,62.22c3.24-1.35,4.86-2.16,4.86-2.43-.27.54-1.08.88-2.43,1.01-1.35.14-2.16.61-2.43,1.42ZM279.82,212.38c-1.08-.27-1.62,0-1.62.81.54,0,1.08-.27,1.62-.81.81-.54,1.75-1.62,2.83-3.24-.81.27-1.42.27-1.82,0-.4-.27-.47-.81-.2-1.62-1.35,0-2.02.14-2.02.4.54.27.81.95.81,2.02,0,.81.13,1.62.4,2.43ZM280.63,296.56c.27.54.2,1.01-.2,1.42s-.61.75-.61,1.01c.81-.27,1.62-.81,2.43-1.62.27-.27.54-.54.81-.81h-2.43ZM287.92,49.68c-.54,1.08-3.1,2.16-7.69,3.24,0-.27.27-.4.81-.4.81-.54,1.08-1.08.81-1.62,0,.27.81,0,2.43-.81.27.81.81.95,1.62.4.81-.54,1.48-.81,2.02-.81ZM317.47,304.66c1.62,0,3.84.81,6.68,2.43,2.83,1.62,4.51,2.57,5.06,2.83,0-.54-.4-1.21-1.21-2.02,4.86.81,9.44,4.18,13.76,10.12-.27.54-.68.87-1.21,1.01-.54.13-1.08-.07-1.62-.61.27.27.4.54.4.81v.4c-.54.54-1.69.54-3.44,0-1.76-.54-2.77-.4-3.04.41.54-1.08.27-1.89-.81-2.43-1.08-.54-2.3-.54-3.64,0-1.89-3.24-4.45-5-7.69-5.26.27.27.87.67,1.82,1.21.94.54,1.55,1.07,1.82,1.62-.81,0-1.96-.4-3.44-1.21-1.49-.81-2.77-1.35-3.84-1.62,0-1.89-.14-2.83-.4-2.83-.54-.27-.81-.13-.81.4s-.07.81-.2.81h-1.01c0-2.43-1.21-4.05-3.64-4.86-.54,0-.68.4-.4,1.21.27.81.13,1.21-.4,1.21-.81-.54-1.21-1.62-1.21-3.24-1.08.27-2.57.27-4.45,0-.54-.54-.68-1.35-.4-2.43-.81,0-1.21.4-1.21,1.21-.27-.27-.61-.74-1.01-1.42-.4-.67-1.01-1.28-1.82-1.82-.27,0-.4.54-.4,1.62-1.62-.27-2.43-1.48-2.43-3.64-.54-.27-.88-.06-1.01.61-.14.68-.34,1.01-.61,1.01-.81-.27-1.56-1.01-2.23-2.23-.68-1.21-1.15-1.95-1.42-2.23-1.62.81-2.3.68-2.02-.4-.54,1.08-1.62,1.15-3.24.2-1.62-.94-2.83-1.42-3.64-1.42,0-1.35-.95-2.29-2.83-2.83.27-1.35.94-1.75,2.02-1.21.81.54,1.48.68,2.02.4,1.35,1.35,3.98,2.7,7.89,4.05,3.91,1.35,6.54,2.83,7.89,4.45,1.08-.27,2.23.07,3.44,1.01,1.21.95,2.23,1.42,3.04,1.42v1.62c1.08-.27,2.16-.13,3.24.4,1.08.54,2.23,1.28,3.44,2.23,1.21.95,2.23,1.56,3.04,1.82.81-.54,1.21-1.48,1.21-2.83ZM280.63,206.71c.54,0,.94.27,1.21.81.27.54.67.68,1.21.4v-2.83c-.54,0-1.35.54-2.43,1.62ZM284.28,55.34c-.27.54-.95.81-2.02.81-.27-.54.4-.81,2.02-.81ZM285.09,207.93c1.88-.81,1.75-2.29-.4-4.45-.27.81-.14,2.3.4,4.45ZM285.09,296.16c.81.54,1.08,1.08.81,1.62-.54,0-.81-.54-.81-1.62ZM285.49,191.33c4.31-2.16,5.8-3.78,4.45-4.86-.27.54-1.01,1.28-2.23,2.23-1.21.95-1.96,1.82-2.23,2.63ZM287.51,298.18h.81v.81h-.81v-.81ZM289.13,48.87l.81.81c0,.27-.07.4-.2.4-.14,0-.2.14-.2.4l-.4-.4h-.81c.54-.54.81-.94.81-1.21ZM289.94,52.51c.54,0,1.08.81,1.62,2.43-.54.27-1.01.27-1.42,0-.4-.27-.75-.4-1.01-.4-.27-.54-.2-.94.2-1.21.4-.27.61-.54.61-.81ZM290.35,48.87h1.21v1.21h-1.21v-1.21ZM290.75,186.48c.54-.27,1.75-1.21,3.64-2.83-.81,0-2.02.95-3.64,2.83ZM290.75,297.78c0-.27.4-.4,1.21-.4,0,.27-.4.4-1.21.4ZM293.18,48.06c1.62,0,2.69.14,3.24.4,0,.54-.27.95-.81,1.21-.54.27-1.08.27-1.62,0-.54-.27-.81-.81-.81-1.62ZM293.18,52.51h1.21v.81h-1.21v-.81ZM294.8,198.21c.27,0,.4.14.4.4-.27,0-.4-.13-.4-.4ZM299.66,52.11c-.27.54-1.01.81-2.23.81s-1.96.14-2.23.4c0-.54.27-1.01.81-1.42.54-.4,1.21-.54,2.02-.4.81.14,1.35.34,1.62.61ZM295.61,57.77c1.35-.27,2.02-.54,2.02-.81h-2.02v.81ZM301.68,48.06c-2.7,1.89-4.19,1.89-4.45,0,.54-.27,1.35-.4,2.43-.4s1.75.14,2.02.4ZM302.09,50.08c.54.27,1.07,1.08,1.62,2.43h-3.64c0-.54.4-.94,1.21-1.21.81,0,1.08-.4.81-1.21ZM302.49,194.17c.27.81.13,1.35-.4,1.62-.54.27-.68.68-.4,1.21-1.08-.54-1.62-1.35-1.62-2.43.54-.27,1.35-.4,2.43-.4ZM302.09,56.96h2.83c0-1.07-.14-1.62-.4-1.62,0,.27-.4.54-1.21.81-1.08,0-1.49.27-1.21.81ZM305.32,46.04c0,.27.27.54.81.81.54.27.67.68.4,1.21-.54.27-1.15.4-1.82.4h-2.23c0-.54.94-1.35,2.83-2.43ZM302.49,182.02c.81,0,1.68-.33,2.63-1.01.94-.67,1.62-1.35,2.02-2.02.4-.67.34-1.28-.2-1.82-.27.27-.81.68-1.62,1.21-.81.54-1.49,1.08-2.02,1.62-.54.54-.81,1.21-.81,2.02ZM307.35,183.64c1.35.81,2.97.95,4.86.4v2.02c-1.35-.27-2.3.4-2.83,2.02-.54.27-.95.14-1.21-.4-.27-.54-.54-.81-.81-.81.27,1.89-1.21,3.64-4.45,5.26v-2.43c.81-.27,1.55-.74,2.23-1.42s1.28-1.15,1.82-1.42c-.81-.27-.95-.74-.4-1.42.54-.67.81-1.28.81-1.82ZM303.7,176.76v.81c.27.27.54.27.81,0,0-.54-.14-.94-.4-1.21,0,.27-.14.4-.4.4ZM304.51,50.08c1.62,0,2.43.68,2.43,2.02-1.62,0-2.43-.67-2.43-2.02ZM304.51,186.88l.81-.4c0,.27-.27.4-.81.4ZM307.75,176.76c.27-.81.13-1.21-.4-1.21-.81,0-1.21-.13-1.21-.4-.27-.27-.54-.4-.81-.4-.54.81-.47,1.42.2,1.82.67.4,1.42.47,2.23.2ZM307.35,46.44c.54,0,.74.34.61,1.01-.14.68-.47.88-1.01.61v-.81c.27,0,.4-.27.4-.81ZM307.75,55.75h-.4c-.27,0-.4.14-.4.4.54,0,.81-.13.81-.4ZM308.97,174.74c1.07.27,2.16.07,3.24-.61,1.08-.67,1.75-1.68,2.02-3.04h-1.62c.27,1.08-.27,2.02-1.62,2.83l-2.02.81ZM310.18,52.92c1.08,0,1.88-.54,2.43-1.62-.27,0-.4-.13-.4-.4h-.81c.27.54.13.88-.4,1.01-.54.14-.81.47-.81,1.01ZM312.2,46.44c2.43,0,4.05.27,4.86.81.54-.27.61-.67.2-1.21-.4-.54-.34-.81.2-.81.27,0,1.01.07,2.23.2,1.21.14,2.09.34,2.63.61v-.81c.54,0,.81-.13.81-.41-2.7-1.35-5.4-1.07-8.09.81,0-.81-.27-1.08-.81-.81-.54.54-1.21.27-2.02-.81v2.43ZM312.2,53.32c.27.27.54.81.81,1.62.27.81.67,1.21,1.21,1.21v-1.21c0-1.08-.27-1.62-.81-1.62h-1.21ZM313.82,167.45h-.81c-.27,0-.4.14-.4.4.81,0,1.21-.13,1.21-.4ZM315.04,183.24v-1.21l-.41.4c-.27.27-.54.27-.81,0,0-.27.13-.4.4-.4l.4-.81c0-.54-.27-.54-.81,0s-.95.68-1.21.4c.27-.27.54-.74.81-1.42.27-.67.54-1.15.81-1.42.27-.27.81-.4,1.62-.4-.27.81-.27,1.82,0,3.04.27,1.21,0,1.82-.81,1.82ZM313.82,184.05c0,.27.06.54.2.81.13.27.2.54.2.81-.81,0-1.08-.54-.81-1.62h.4ZM315.04,183.24c.27.27.27.54,0,.81s-.68.27-1.21,0c0-.27.27-.4.81-.4l.41-.4ZM314.63,52.11c1.88,0,2.83-.27,2.83-.81-.27-.27-.75-.27-1.42,0-.68.27-1.15.54-1.42.81ZM315.04,166.24c.54-.54.94-.81,1.21-.81v-1.21h-1.62c0,1.08.13,1.76.41,2.02ZM315.04,55.75c.54.27.87,0,1.01-.81.13-.81.33-1.21.61-1.21-.54-.27-.88,0-1.01.81-.14.81-.34,1.21-.61,1.21ZM316.25,167.45c0,1.35.13,2.02.4,2.02.54-.54,1.35-1.48,2.43-2.83-.54,0-1.08.34-1.62,1.01-.54.68-.95.61-1.21-.2ZM317.06,175.14c.54.54.4,2.16-.4,4.86-.27-.27-.4-.67-.4-1.21v-2.02c.54.27.81-.27.81-1.62ZM319.08,54.53c-.27,0-.54-.27-.81-.81-.54-.54-.95-.54-1.21,0,1.08,1.08,1.75,1.35,2.02.81ZM318.68,180c-.27.81-.81,1.21-1.62,1.21,0-.27.54-.67,1.62-1.21ZM319.49,173.53c.27.54-.14.81-1.21.81h-.81c.54-1.08,1.21-1.35,2.02-.81ZM317.47,307.9c.54.27,3.1,1.69,7.69,4.25,4.58,2.56,8.36,4.38,11.33,5.46-2.97-2.16-7.69-5.4-14.17-9.71.27.27.27.54,0,.81-.27.27-.68.27-1.21,0v-1.62c-.54,0-1.08-.2-1.62-.61-.54-.4-.95-.61-1.21-.61,0,.54-.14.95-.4,1.21-.27.27-.4.54-.4.81ZM319.49,52.51v-1.21c-.27-.27-.54-.27-.81,0-.81.54-.81.95,0,1.21h.81ZM319.89,312.75c.27-.54-.27-1.49-1.62-2.83-.27.54.27,1.48,1.62,2.83ZM318.27,47.25h1.21c0-.81-.4-1.21-1.21-1.21v1.21ZM319.08,55.75h-.4c-.27,0-.4.14-.4.4.54,0,.81-.13.81-.4ZM318.68,179.6c0-.27.27-.4.81-.4,0,.27-.27.4-.81.4ZM319.49,162.19c0-.54.2-1.14.61-1.82.4-.67.2-1.01-.61-1.01,0,.27-.14.68-.4,1.21-.54.81-.4,1.35.4,1.62ZM324.35,160.57c-3.51,1.89-5.26,3.78-5.26,5.67.27-.27,1.15-1.01,2.63-2.23,1.48-1.21,2.36-2.36,2.63-3.44.81,0,1.48-.94,2.02-2.83-.81,0-1.35.14-1.62.4-.27.27-.34.61-.2,1.01.13.4.06.88-.2,1.42ZM320.7,175.95l-.81.81c.81.81,1.08,1.49.81,2.02-.54-.27-.88-.81-1.01-1.62-.14-.81.2-1.21,1.01-1.21ZM319.89,56.15c.81,0,1.48.14,2.02.4.54.27,1.07.4,1.62.4,0-.54-.34-1.01-1.01-1.42-.68-.4-.88-1.01-.61-1.82h-1.21c.27.54.2,1.01-.2,1.42s-.61.75-.61,1.01ZM320.7,175.95c1.08-.81,2.23-2.36,3.44-4.65,1.21-2.29,1.95-3.71,2.23-4.25-.27.54-.27,1.15,0,1.82.27.68.4,1.15.4,1.42-3.51,3.51-5.53,5.4-6.07,5.67ZM321.11,169.88h.81l.4.4c0,.27-.14.47-.4.61-.27.14-.4.34-.4.61-.27,0-.41-.54-.41-1.62ZM323.13,169.07h.81l.4.4-.4.4v1.21c-.81-.54-1.08-1.21-.81-2.02ZM324.75,46.44c.54-1.08,1.42-1.28,2.63-.61,1.21.68,1.82.88,1.82.61-.27-1.08-2.02-1.62-5.26-1.62,0,1.08.27,1.62.81,1.62ZM323.94,56.15c.27.81.54.95.81.4.27-.54.13-.94-.4-1.21l-.4.81ZM325.56,155.72c0-.81-.4-1.21-1.21-1.21,0,1.08.4,1.49,1.21,1.21ZM324.35,315.18c.54,0,.67.13.4.4-.27,0-.4-.14-.4-.4ZM329.2,162.19c.27,0,.4.95.4,2.83-.54,0-1.08.27-1.62.81s-1.08.81-1.62.81c-.54-.81-.2-1.62,1.01-2.43,1.21-.81,1.82-1.48,1.82-2.02ZM330.82,55.34c-.27,0-1.08-.13-2.43-.4-1.35-.27-2.02-.13-2.02.4.54,0,1.42.2,2.63.61,1.21.4,1.82.2,1.82-.61ZM329.61,169.48c-1.08,1.62-2.02,2.97-2.83,4.05-.81-1.88.13-3.24,2.83-4.05ZM334.46,48.46c0-2.16-1.62-2.83-4.86-2.02,1.88,1.35,3.5,2.02,4.86,2.02ZM330.82,311.94c.54-.54.67-1.08.4-1.62-.27-.54-.81-.67-1.62-.4.54,1.35.94,2.02,1.21,2.02ZM330.42,321.66h.81-.81ZM334.46,54.53c-.27,0-.61-.27-1.01-.81-.4-.54-.75-.81-1.01-.81s-.68.14-1.21.4c.27,0,.81.27,1.62.81.81.81,1.35.95,1.62.4ZM331.23,148.43h.81v-.81h-.81v.81ZM333.65,161.79c.27.54.34.95.2,1.21-.14.27-.47.61-1.01,1.01-.54.4-.81.75-.81,1.01-.27-.27-.34-.54-.2-.81.13-.27.47-.67,1.01-1.21.54-.54.81-.94.81-1.21ZM332.84,57.77c0-.27.4-.27,1.21,0,.81.27,1.21,0,1.21-.81-.27-.27-.68-.47-1.21-.61-.54-.13-.95-.33-1.21-.61-1.35,1.35-1.35,2.02,0,2.02ZM333.65,150.46c.27,0,.4-.27.4-.81.54-.81,1.08-1.21,1.62-1.21v-.81c-.27,0-.68-.13-1.21-.4,0,.27-.27.68-.81,1.21-.54,1.08-.54,1.76,0,2.02ZM338.11,52.92c-.27-.81-1.49-1.48-3.64-2.02,0,.54.2.88.61,1.01.4.14.94.27,1.62.4.67.14,1.14.34,1.42.61ZM338.92,156.53c-.81,1.89-.95,3.24-.4,4.05-.54-.27-1.89,0-4.05.81.27-.27.67-.87,1.21-1.82.54-.94,1.01-1.68,1.42-2.23.4-.54,1.01-.81,1.82-.81ZM335.27,163.81c0-.81.13-1.35.4-1.62,1.07,0,1.07.54,0,1.62h-.4ZM338.51,59.39c.27.27,1.62.81,4.05,1.62,0-.54-.34-.94-1.01-1.21-.68-.27-.75-.67-.2-1.21-.27,0-.68.2-1.21.61-.54.4-1.08.47-1.62.2ZM343.37,61.82l.81.4c.54.27.94.54,1.21.81h.4c.54-.27.81-.54.81-.81-.27,0-.75-.13-1.42-.4-.68-.27-1.28-.27-1.82,0ZM344.18,147.62v.81h1.21c.54-.54.4-.94-.4-1.21,0,.27-.27.4-.81.4ZM345.39,145.6c.54-.27.94-1.08,1.21-2.43-.81.27-1.21.68-1.21,1.21.27.54.27.95,0,1.21ZM349.03,62.22h-.81.81ZM351.46,137.1c.54,0,.94-.13,1.21-.4.27-.27.67-.4,1.21-.4,0-1.35-.27-2.29-.81-2.83,0,.54-.07,1.01-.2,1.42-.14.4-.4.75-.81,1.01-.4.27-.61.68-.61,1.21ZM353.89,69.51c-.54,0-.81.14-.81.4.54,0,.81-.13.81-.4ZM355.1,131.43c.27-.81,1.21-1.75,2.83-2.83-.27-.81-.27-1.55,0-2.23.27-.67.81-1.75,1.62-3.24.81-1.48,1.21-2.76,1.21-3.84-.27-.54,0-1.95.81-4.25.81-2.29.67-3.57-.4-3.85-.54,2.43-1.62,5.81-3.24,10.12-1.62,4.32-2.57,7.69-2.83,10.12Z"/>
    </g>
  </g>
</svg>